<?xml version="1.0" encoding="utf-8"?>
<!-- Generator: Adobe Illustrator 28.0.0, SVG Export Plug-In . SVG Version: 6.00 Build 0)  -->
<svg version="1.1" xmlns="http://www.w3.org/2000/svg" xmlns:xlink="http://www.w3.org/1999/xlink" x="0px" y="0px"
	 viewBox="0 0 4954.7 3330.7" style="enable-background:new 0 0 4954.7 3330.7;" xml:space="preserve">
<style type="text/css">
	.st0{display:none;}
	.st1{display:inline;fill:#171717;}
	.st2{fill:#FBF5F5;stroke:#FBF5F5;stroke-miterlimit:10;}
	.st3{fill:none;stroke:#FBF5F5;stroke-miterlimit:10;}
	.st4{fill:#FFFFFF;stroke:#FBF5F5;stroke-miterlimit:10;}
</style>
<g id="Layer_1" class="st0">
	<rect x="0" y="0" class="st1" width="4954.7" height="3330.7"/>
</g>
<g id="Layer_2">
	<path class="st2" d="M2396.7,1120c-145.1,412.9-100.7,366.5-530,416.2C2163.9,1501.9,2285.3,1416.4,2396.7,1120z"/>
	<path class="st3" d="M2396.7,1120c31.8-101.7-7.4-131.3-46.5-125.4c-213.2,32.3-370.6,438.7-646.9,515.2
		c-249.8,69.1-387.6-87.1-359.5-238.2c34.9-187.9,297.3-300.4,525.1-284.6c299.1,20.8,643.3,191.9,643.3,604.6
		c0,213.3-120,350.1-240,407.1c-236.9,112.4-562.2,23.1-663.1-183.1c-186.1-380.5,330.2-788.4,679.1-547.6"/>
	<path class="st3" d="M2299.8,1454.7c161-335.3,236.6-480.3,245.3-476.4c16.5,7.4-192,554.7-192,554.7s43.3-91.4,93.6-180.1
		c77.9-137.4,155.9-196.5,155.9-196.5s-3.6,4.8-6.7,9.1"/>
	<path class="st4" d="M2454.5,1647.3c-15.4-83.2,5.9-160.3,26.5-231.3c41.7-143.6,114.9-250.5,114.9-250.5s-87,109.7-129.5,250.1
		C2447.6,1477.5,2433.3,1553.3,2454.5,1647.3"/>
	<path class="st3" d="M2454.5,1647.3c61.9,311,505.6,405.8,780.1,360.7c276-45.3,495.8-284.4,495.8-559.5
		c0-294.7-278.6-553.1-654.7-506.7c-237.3,29.3-382.7,180.2-417.3,241.3"/>
	<path class="st3" d="M2171.4,1634.1c126.2-26.8,242.1-74.6,350.1-138.5c0,0-8.8,12.2-6.1,12.6c2.6,0.4,66-13.6,75.1-11.6
		c0,0-0.1,2.1-2.6,4.3"/>
	<line class="st3" x1="2535.1" y1="1477.8" x2="2531.5" y2="1482"/>
	<path class="st2" d="M2716.7,1643.5c-15.6,99-138.1,320.2-140.2,398.4C2571.7,1882.6,2710.5,1688.3,2716.7,1643.5z"/>
	<path class="st2" d="M2153.9,2421.7c322.9,99.9,450.2-194.5,531.5-370.4C2632.9,2157.2,2415.6,2504,2153.9,2421.7z"/>
	<path class="st3" d="M2210.3,1797.6c-244.2,102.7-310.6,385.3-187.7,530.1c171,201.5,474.6,139.5,679-310.9
		c131.5-289.8,192.7-367.9,192.7-367.9s-208.3,364.3-287.5,402.2c-137.1,65.6,242.8-541.7,59.5-421.6
		c-120,78.6-204.8,222.6-352.6,261.7c-147.8,39-211.7-24.2-211.4-77.1c0.3-56.4,70.6-129.4,237.1-142.9
		c214-17.3,578.9,221,746.1,205.1c168.9-16,350.5-214,206.2-408.9c-65.8-88.9-208.9-110-350.9-2.6c-46.4,35.1-78.8,44.2-96.8,44
		c-9.3-0.1-8.3,0.1-0.7-11.9c32.2-51,66.4-104,79.9-121.6s14.5-5.6,1.8,23.7c-12.8,29.3-54.3,71.5-81.7,97.9
		c-11.1,10.7-59.1,13.8-64.5,11c-3.5-1.8-0.1-10.1,9.1-12.2c5.7-1.3,10.7,2.5,6.6,2.5c-23.9,0.1-70.3,12.9-73.6,10.3
		c-2.9-2.3,8.5-12.4,8.5-12.4c-6.5,5.9-14.8,10.3-20.1,11.2c-4.2,0.7,2.6-13,20.6-13c-15.1-2-84.4,19.8-80.8,12.9
		c1.8-3.5,1.5-3,7.3-12c6.1-9.5-25,12-25,12s67.3-111.3,87.9-136.8c7.6-9.3,6.7,16.1-3.9,33.9c-14.8,24.9-39.6,65.3-76.8,89.8
		c-19.6,13-59.4,14.3-65.2,14.3s1.6-9.1,8.6-11.8"/>
	<path class="st3" d="M2610.5,2089.4c112.4-31.1,137.9-76.6,168.6-77.9c-15.3,0.4-21.6,15.3-20,17.8c2.8,4.2,20.3-11.4,20.7-15.9
		c13.7,2.3,39.3-2.8,56.8-2.7c-13.2,0.3-21.7,18.5-17.3,19.6c4.2,1,17.2-9,19.1-16.8c92.3,86.9,261.9,54.5,287.8-83.7
		c21.3-113.8-118.1-163.2-171.2-127.2"/>
	<line class="st3" x1="1866.7" y1="1536.3" x2="1838.2" y2="1539.3"/>
</g>
</svg>
